======================= BLACK VEIL BRIDES - PERFECT WEAPON ========================

Format                           : MPEG-4
Format profile                   : Base Media / Version 2
Codec ID                         : mp42
File size                        : 135 MiB
Duration                         : 5mn 6s
Overall bit rate                 : 3 703 Kbps
Encoded date                     : UTC 2010-06-14 10:32:54
Tagged date                      : UTC 2010-06-14 10:32:54
gsst                             : 0
gstd                             : 307268
gssd                             : BCA9FD844MH1308510121208052
gshh                             :

Video
ID                               : 2
Format                           : AVC
Format/Info                      : Advanced Video Codec
Format profile                   : High@L4.0
Format settings, CABAC           : Yes
Format settings, ReFrames        : 1 frame
Codec ID                         : avc1
Codec ID/Info                    : Advanced Video Coding
Duration                         : 5mn 6s
Bit rate mode                    : Variable
Bit rate                         : 3 575 Kbps
Maximum bit rate                 : 9 437 Kbps
Width                            : 1 920 pixels
Height                           : 1 080 pixels
Display aspect ratio             : 16:9
Frame rate mode                  : Constant
Frame rate                       : 24.000 fps
Color space                      : YUV
Chroma subsampling               : 4:2:0
Bit depth                        : 8 bits
Scan type                        : Progressive
Bits/(Pixel*Frame)               : 0.072
Stream size                      : 131 MiB (97%)
Title                            : (C) 2007 Google Inc. v08.13.2007.
Encoded date                     : UTC 2010-06-14 10:32:54
Tagged date                      : UTC 2010-06-14 10:32:55

Audio
ID                               : 1
Format                           : AAC
Format/Info                      : Advanced Audio Codec
Format version                   : Version 4
Format profile                   : LC
Format settings, SBR             : No
Codec ID                         : 40
Duration                         : 5mn 6s
Bit rate mode                    : Variable
Bit rate                         : 125 Kbps
Maximum bit rate                 : 196 Kbps
Channel(s)                       : 2 channels
Channel positions                : Front: L R
Sampling rate                    : 44.1 KHz
Stream size                      : 4.59 MiB (3%)
Title                            : (C) 2007 Google Inc. v08.13.2007.
Encoded date                     : UTC 2010-06-14 10:32:54
Tagged date                      : UTC 2010-06-14 10:32:55

============================= SCREEN SHOTS ====================================

                       http://bayimg.com/DAiHPAadL

===============================================================================

                          ARTIST/GROUP/BAND INFO

Black Veil Brides"- 
                   is an American rock band based out of Hollywood, California. The group is composed of Andrew "Andy Six" Dennis Biersack (lead vocals), Ashley Purdy (bass, backing vocals), Jake Pitts (lead guitar), Jinxx (guitar, violin), and Christian "CC" Coma (drums). Black Veil Brides are known for their distinct appearance, mainly being inspired by Kiss' stage persona as well as numerous 1980's glam metal acts.

==============================MUSIC GENRE=========================================

Genres	Post-hardcore, metalcore, glam metal, hard rock

============================ FOLLOW ME ON TWEETER AND FACEBOOK =================

        SEARCH FOR   haunting_summer

  http: // www. facebook. com/ pages/ HaUnTiNgSuMMeR-ToRrEnTs/ 192812490771363

=================================================================================

--------------- PLZ RATE +/- THE QUALITY N COMMENT IF POSSIBLE -----------------

